<svg width="114" height="100" viewBox="0 0 114 100" fill="none" xmlns="http://www.w3.org/2000/svg">
<g id="Group">
<g id="Group_2">
<path id="Vector" d="M47.7086 28.06H65.1941C66.3521 28.06 67.3942 28.4064 68.4364 28.8683L84.1849 0.923785C82.9112 0.346419 81.5216 0 80.0162 0H32.8865C31.1495 0 29.5283 0.461893 28.1388 1.2702L44.2347 28.8683C45.2769 28.2909 46.4348 28.06 47.7086 28.06Z" fill="#FFCC1D"/>
</g>
<g id="Group_3">
<path id="Vector_2" d="M71.2156 31.5242L79.9005 46.5357C80.4794 47.575 80.8268 48.8452 80.8268 49.9999L113.019 50.0001C113.019 48.3834 112.44 46.7667 111.629 45.381L88.1221 4.61897C87.1957 3.00234 85.8061 1.73214 84.185 0.923828L68.4316 28.8608C69.5896 29.5536 70.5208 30.3695 71.2156 31.5242Z" fill="#57CC99"/>
</g>
<g id="Group_4">
<path id="Vector_3" d="M80.827 50C80.827 51.1547 80.4796 52.4249 79.9006 53.4642L71.2158 68.4757C70.6368 69.515 69.7104 70.4387 68.784 71.0161L84.8799 98.6142C86.1537 97.8059 87.3117 96.6511 88.1222 95.3809L111.745 54.6189C112.556 53.2332 113.019 51.6166 113.019 50H80.827Z" fill="#1597E5"/>
</g>
<g id="Group_5">
<path id="Vector_4" d="M65.1943 71.9394H47.7088C46.5508 71.9394 45.5045 71.7067 44.5781 71.2448L28.8325 99.0767C30.1063 99.654 31.3813 99.9994 32.7709 99.9994H80.0164C81.7534 99.9994 83.4993 99.532 84.8889 98.6082L68.784 71.0156C67.626 71.593 66.468 71.9394 65.1943 71.9394Z" fill="#AE4CCF"/>
</g>
<g id="Group_6">
<path id="Vector_5" d="M33.0024 46.535L41.6872 31.5235C42.2662 30.4842 43.3099 29.435 44.2363 28.8577L28.1389 1.26953C26.8651 2.07784 25.7071 3.23257 24.8965 4.61825L1.27378 45.3803C0.463192 46.7659 0 48.3826 0 49.9992H32.076C32.076 48.8445 32.4234 47.5743 33.0024 46.535Z" fill="#FF8243"/>
</g>
<g id="Group_7">
<path id="Vector_6" d="M41.6872 68.4757L33.0024 53.4642C32.4234 52.4249 32.076 51.1547 32.076 50H0C0 51.6166 0.463192 53.2332 1.27378 54.6189L24.8965 95.3809C25.8229 96.9976 27.2125 98.2678 28.8337 99.0761L44.5822 71.2471C43.3084 70.5542 42.382 69.6304 41.6872 68.4757Z" fill="#FF4848"/>
</g>
</g>
</svg>
