<svg xmlns="http://www.w3.org/2000/svg" version="1.1" xmlns:xlink="http://www.w3.org/1999/xlink" xmlns:svgjs="http://svgjs.dev/svgjs" width="114" height="114"><svg width="114" height="114" viewBox="0 0 114 114" fill="none" xmlns="http://www.w3.org/2000/svg">
<g clip-path="url(#clip0_9561_2920)">
<path d="M47.7085 35.06H65.194C66.352 35.06 67.3941 35.4064 68.4363 35.8683L84.1848 7.92378C82.9111 7.34642 81.5215 7 80.0161 7H32.8864C31.1494 7 29.5282 7.46189 28.1387 8.2702L44.2346 35.8683C45.2768 35.2909 46.4347 35.06 47.7085 35.06Z" fill="#FFCC1D"></path>
<path d="M71.2156 38.5242L79.9005 53.5357C80.4794 54.575 80.8268 55.8452 80.8268 56.9999L113.019 57.0001C113.019 55.3834 112.44 53.7667 111.629 52.381L88.1221 11.619C87.1957 10.0023 85.8061 8.73214 84.185 7.92383L68.4316 35.8608C69.5896 36.5536 70.5208 37.3695 71.2156 38.5242Z" fill="#57CC99"></path>
<path d="M80.8272 57C80.8272 58.1547 80.4798 59.4249 79.9008 60.4642L71.216 75.4757C70.637 76.515 69.7106 77.4387 68.7842 78.0161L84.8801 105.614C86.1539 104.806 87.3119 103.651 88.1224 102.381L111.745 61.6189C112.556 60.2332 113.019 58.6166 113.019 57H80.8272Z" fill="#1597E5"></path>
<path d="M65.1943 78.9394H47.7088C46.5508 78.9394 45.5045 78.7067 44.5781 78.2448L28.8325 106.077C30.1063 106.654 31.3813 106.999 32.7709 106.999H80.0164C81.7534 106.999 83.4993 106.532 84.8889 105.608L68.784 78.0156C67.626 78.593 66.468 78.9394 65.1943 78.9394Z" fill="#AE4CCF"></path>
<path d="M33.0024 53.535L41.6872 38.5235C42.2662 37.4842 43.3099 36.435 44.2363 35.8577L28.1389 8.26953C26.8651 9.07784 25.7071 10.2326 24.8965 11.6183L1.27378 52.3803C0.463192 53.7659 0 55.3826 0 56.9992H32.076C32.076 55.8445 32.4234 54.5743 33.0024 53.535Z" fill="#FF8243"></path>
<path d="M41.6872 75.4757L33.0024 60.4642C32.4234 59.4249 32.076 58.1547 32.076 57H0C0 58.6166 0.463192 60.2332 1.27378 61.6189L24.8965 102.381C25.8229 103.998 27.2125 105.268 28.8337 106.076L44.5822 78.2471C43.3084 77.5542 42.382 76.6304 41.6872 75.4757Z" fill="#FF4848"></path>
</g>
<defs>
<clipPath id="SvgjsClipPath1013">
<rect width="114" height="100" fill="white" transform="translate(0 7)"></rect>
</clipPath>
</defs>
</svg><style>@media (prefers-color-scheme: light) { :root { filter: none; } }
@media (prefers-color-scheme: dark) { :root { filter: none; } }
</style></svg>